<?xml version="1.0" encoding="utf-8"?>
<!-- Generator: Adobe Illustrator 25.0.0, SVG Export Plug-In . SVG Version: 6.00 Build 0)  -->
<svg version="1.1" id="Layer_1" xmlns="http://www.w3.org/2000/svg" xmlns:xlink="http://www.w3.org/1999/xlink" x="0px" y="0px"
	 viewBox="0 0 265 69.3" style="enable-background:new 0 0 265 69.3;" xml:space="preserve">
<style type="text/css">
	.st0{fill:#232430;}
	.st1{fill:none;}
</style>
<g>
	<g>
		<path class="st0" d="M88.7,47.5c0.5,0.6,1.6,0.8,3,0.8c1.5,0,2.5-0.3,3-0.8c0.5-0.6,0.8-1.6,0.8-3.1h3.1c0,4.7-2.3,7.1-6.9,7.1
			s-6.9-2.4-6.9-7.1v-17c0-1,0-1.8,0.1-2.6c0.1-0.8,0.3-1.6,0.6-2.6c0.3-0.9,0.7-1.7,1.2-2.3s1.2-1.1,2-1.6c0.9-0.4,1.9-0.6,3.1-0.6
			c1,0,1.9,0.1,2.6,0.4c0.8,0.3,1.4,0.6,1.9,1.1s0.9,1,1.2,1.6c0.3,0.6,0.6,1.3,0.7,2c0.2,0.8,0.3,1.5,0.3,2.2s0.1,1.5,0.1,2.3h-3.1
			c0-1.1,0-2-0.1-2.8s-0.3-1.4-0.5-1.9s-0.4-0.8-0.6-1.1c-0.2-0.3-0.5-0.5-0.8-0.6c-0.4-0.1-0.6-0.2-0.9-0.2c-0.2,0-0.5,0-0.9,0
			c-0.6,0-1.1,0.1-1.5,0.2s-0.8,0.4-1.2,0.8c-0.4,0.4-0.7,1.1-0.9,2c-0.2,0.9-0.3,2.1-0.3,3.6v17C87.8,45.9,88.1,46.9,88.7,47.5z"/>
		<path class="st0" d="M101,51.5V17.7h3.1v30.7h8.8v3.1H101z"/>
		<path class="st0" d="M125.4,17.8c1,0,1.8,0.2,2.6,0.5c0.8,0.4,1.4,0.8,1.8,1.3c0.5,0.5,0.9,1.2,1.2,1.8s0.5,1.3,0.6,2
			c0.1,0.6,0.2,1.2,0.2,1.8v26.2h-3.1V35c-0.4,0-0.7,0-0.9,0c-2,0-3.9-0.3-5.6-0.8v17.2h-3.1V32.8c-0.4-0.3-0.8-0.6-1.2-0.9
			c-0.4-0.3-0.7-0.6-1-0.9s-0.5-0.6-0.8-0.9c-0.2-0.3-0.4-0.6-0.6-0.8c-0.2-0.3-0.3-0.5-0.4-0.7s-0.2-0.4-0.3-0.6
			c-0.1-0.2-0.1-0.3-0.2-0.4c0-0.1,0-0.2,0-0.2l3-0.9c0.2,0.8,0.7,1.6,1.5,2.4v-3.6c0-0.4,0-0.8,0.1-1.2c0-0.5,0.2-1.2,0.6-2.2
			c0.3-1,0.8-1.8,1.5-2.4C122.3,18.3,123.7,17.8,125.4,17.8z M122.3,30.9c1.8,0.7,4,1.1,6.5,1v-6.6c0-0.3,0-0.6-0.1-0.9
			c-0.1-0.4-0.2-0.8-0.4-1.4s-0.5-1.1-1-1.5s-1.1-0.6-1.8-0.6c-0.8,0-1.4,0.3-1.9,0.8c-0.3,0.3-0.6,0.7-0.8,1.2
			c-0.2,0.5-0.3,1-0.4,1.4c0,0.4-0.1,0.7-0.1,1C122.3,25.3,122.3,30.9,122.3,30.9z"/>
		<path class="st0" d="M146.4,17.7h3.1v5.2c0,5.5-1.9,9.8-5.8,12.8v15.8h-3.1V35.7c-3.8-3-5.8-7.2-5.8-12.8v-5.2h3.1v5.2
			c0,4.3,1.4,7.6,4.2,10c2.8-2.3,4.2-5.7,4.2-10v-5.2H146.4z"/>
		<path class="st0" d="M164.8,50.2c0,0.5,0,1,0,1.7s-0.2,1.5-0.5,2.7s-0.8,2.2-1.4,3c-0.6,0.8-1.4,1.5-2.4,2s-2,0.7-3.1,0.7
			c-0.2,0-0.4,0-0.6,0c-2.7-0.2-4.8-1.8-6.2-4.7l2.8-1.4c0.9,1.8,2.2,2.8,3.7,3c0.3,0,0.6,0,1,0c0.3-0.1,0.6-0.2,0.9-0.3
			s0.6-0.3,0.8-0.5c0.3-0.2,0.5-0.4,0.6-0.6c0.5-0.7,0.9-1.6,1-2.7c0.2-1.1,0.2-2,0.2-2.7v-0.1V21.1h-9.1V18h12.2v32.2H164.8z"/>
		<path class="st0" d="M169.5,49.5c-0.4-0.6-0.8-1.3-1-2.2s-0.4-1.8-0.5-2.6s-0.1-1.8-0.1-2.9v-17c0-4.7,2.1-7.1,6.3-7.1
			s6.3,2.4,6.3,7.1v17c0,1.2,0,2.1-0.1,2.9c-0.1,0.8-0.2,1.7-0.5,2.6c-0.2,0.9-0.6,1.6-1,2.2c-0.4,0.6-1.1,1-1.9,1.4
			s-1.8,0.6-2.9,0.6s-2.1-0.2-2.9-0.6C170.6,50.5,169.9,50,169.5,49.5z M171.1,24.8v17c0,1.3,0.1,2.4,0.2,3.2c0.1,0.9,0.2,1.5,0.4,2
			c0.2,0.4,0.4,0.8,0.7,1s0.6,0.3,0.8,0.4c0.2,0,0.6,0,1,0s0.8,0,1,0s0.5-0.2,0.8-0.4s0.6-0.5,0.7-1c0.1-0.4,0.3-1.1,0.4-2
			c0.1-0.9,0.2-1.9,0.2-3.2v-17c0-1.7-0.2-2.8-0.7-3.2s-1.3-0.7-2.4-0.7s-2,0.2-2.4,0.7C171.3,22,171.1,23.1,171.1,24.8z"/>
		<path class="st0" d="M185.1,49.8c-0.6-0.6-1.1-1.4-1.5-2.4c-0.3-1-0.5-1.7-0.6-2.2c0-0.5-0.1-0.9-0.1-1.2V17.7h3.1V44
			c0,0.5,0.1,1.1,0.3,1.9c0.2,0.7,0.5,1.3,0.9,1.8c0.5,0.5,1.1,0.7,1.9,0.7c0.4,0,0.9-0.1,1.2-0.2c0.4-0.2,0.7-0.4,0.9-0.6
			s0.4-0.5,0.6-0.8c0.2-0.3,0.3-0.6,0.4-0.9c0.1-0.3,0.1-0.6,0.2-0.9c0-0.3,0.1-0.5,0.1-0.6s0-0.2,0-0.3V17.7h3.1V44
			c0,0.7-0.1,1.5-0.3,2.3s-0.5,1.6-1,2.4c-0.4,0.8-1.1,1.5-2,2s-1.9,0.8-3.1,0.8C187.5,51.5,186.2,50.9,185.1,49.8z"/>
		<path class="st0" d="M209,41.5c0.4,2.3,0.9,4.2,1.4,5.5c0.5,1.4,1.2,2.5,2,3.4l-2.3,2.1c-1.1-1.2-1.9-2.5-2.5-4.1
			s-1.2-3.7-1.7-6.4c-0.4-1.9-1-3.3-1.9-4.1s-1.8-1.3-2.8-1.5v15H198V17.7h1.5c0.2,0,0.6,0,1.1,0c1.2,0,2.1,0,2.8,0s1.5,0.2,2.6,0.5
			c1,0.3,1.8,0.7,2.4,1.3c1,1,1.4,2.2,1.4,3.8v7.4c0,0.4,0,0.8-0.1,1.2c-0.1,0.4-0.2,0.9-0.5,1.4c-0.2,0.5-0.6,1-1.1,1.4
			s-1.1,0.8-1.8,1.1C207.6,37.2,208.5,39.1,209,41.5z M201.2,20.8v12.5c0.6,0,1.2,0,1.7,0c0.9,0,1.7-0.1,2.3-0.3s1-0.4,1.2-0.8
			c0.2-0.3,0.3-0.6,0.4-0.8c0.1-0.2,0.1-0.4,0.1-0.8v-7.4c0-0.7-0.2-1.3-0.6-1.6C205.5,21.1,203.8,20.7,201.2,20.8z"/>
		<path class="st0" d="M226.6,17.7h3.1v33.7h-3.1V49c-1.3-0.6-2.6-1.6-4-3.1c-1.4-1.4-2.7-3.5-3.7-6c0-0.1-0.1-0.2-0.1-0.3
			s-0.1-0.2-0.1-0.3v12.2h-3.1V24.8v-5.5v-1.5h3.1v1.5v5.5c0,4.4,1,9,3.1,13.9c1.3,3,2.9,5.3,4.9,6.7L226.6,17.7L226.6,17.7z"/>
		<path class="st0" d="M243.5,17.8c1,0,1.8,0.2,2.6,0.5c0.8,0.4,1.4,0.8,1.8,1.3c0.5,0.5,0.9,1.2,1.2,1.8c0.3,0.7,0.5,1.3,0.6,2
			s0.2,1.2,0.2,1.8v26.2h-3.1V35c-0.4,0-0.7,0-0.9,0c-2,0-3.9-0.3-5.6-0.8v17.2h-3.1V32.8c-0.4-0.3-0.8-0.6-1.2-0.9
			c-0.4-0.3-0.7-0.6-1-0.9s-0.5-0.6-0.8-0.9c-0.2-0.3-0.4-0.6-0.6-0.8c-0.2-0.3-0.3-0.5-0.4-0.7c-0.1-0.2-0.2-0.4-0.3-0.6
			s-0.1-0.3-0.2-0.4c0-0.1,0-0.2,0-0.2l3-0.9c0.2,0.8,0.7,1.6,1.5,2.4v-3.6c0-0.4,0-0.8,0.1-1.2s0.2-1.2,0.6-2.2
			c0.3-1,0.8-1.8,1.5-2.4C240.5,18.3,241.8,17.8,243.5,17.8z M240.4,30.9c1.8,0.7,4,1.1,6.5,1v-6.6c0-0.3,0-0.6-0.1-0.9
			c-0.1-0.4-0.2-0.8-0.4-1.4s-0.5-1.1-1-1.5s-1.1-0.6-1.8-0.6c-0.8,0-1.4,0.3-1.9,0.8c-0.3,0.3-0.6,0.7-0.8,1.2s-0.3,1-0.4,1.4
			s-0.1,0.7-0.1,1V30.9z"/>
		<path class="st0" d="M253,51.5V17.7h3.1v30.7h8.8v3.1H253z"/>
	</g>
	<g>
		<line class="st1" x1="84.7" y1="10.6" x2="265" y2="10.6"/>
		<path class="st0" d="M264.5,12.1H85.2c-0.3,0-0.5-0.2-0.5-0.5V9.5c0-0.3,0.2-0.5,0.5-0.5h179.3c0.3,0,0.5,0.2,0.5,0.5v2.1
			C265,11.8,264.7,12.1,264.5,12.1z"/>
	</g>
	<g>
		<line class="st1" x1="170.6" y1="58.5" x2="265" y2="58.5"/>
		<path class="st0" d="M264.5,60h-93.4c-0.3,0-0.5-0.2-0.5-0.5v-2.1c0-0.3,0.2-0.5,0.5-0.5h93.4c0.3,0,0.5,0.2,0.5,0.5v2.1
			C265,59.8,264.7,60,264.5,60z"/>
	</g>
	<g>
		<line class="st1" x1="84.7" y1="58.5" x2="146" y2="58.5"/>
		<path class="st0" d="M145.5,60H85.2c-0.3,0-0.5-0.2-0.5-0.5v-2.1c0-0.3,0.2-0.5,0.5-0.5h60.3c0.3,0,0.5,0.2,0.5,0.5v2.1
			C146,59.8,145.8,60,145.5,60z"/>
	</g>
	<rect x="261.6" y="36.4" class="st0" width="3.4" height="3.4"/>
	<rect x="261.6" y="28.1" class="st0" width="3.4" height="3.4"/>
	<rect x="261.6" y="19.8" class="st0" width="3.4" height="3.4"/>
</g>
<g>
	<path class="st0" d="M34.7,0C15.5,0,0,15.5,0,34.7c0,11,5.2,20.9,13.2,27.2c0.5-0.4,1-0.9,1.6-1.3C21.6,55.3,26,47.1,26,37.8
		c0-8.4-3.6-16-9.4-21.3c-1.7-1.6-0.7-4.4,1.7-4.4h33.4c2.3,0,3.4,2.9,1.7,4.4C47.6,21.8,44,29.4,44,37.8c0,9.3,4.4,17.5,11.2,22.8
		c0.5,0.4,0.9,0.7,1.4,1.1c7.9-6.4,13-16.1,13-27.1C69.4,15.5,53.9,0,34.7,0z"/>
	<path class="st0" d="M41.2,36.4c0-0.2-0.1-0.3-0.2-0.4c-0.1-0.1-0.3-0.2-0.4-0.2l-5.7,0.1l-5.7-0.1c-0.2,0-0.3,0.1-0.4,0.2
		c-0.1,0.1-0.2,0.3-0.2,0.4c0,0.1,0.2,8.6-2.9,15.1c-0.1,0.2-0.1,0.5,0.1,0.7c0.1,0.1,6.9,7.8,8.5,16.7l0,0l0,0c0,0,0,0,0,0.1l0,0
		c0,0,0,0,0,0.1l0,0l0,0l0,0l0,0l0,0l0,0l0,0c0,0,0,0,0.1,0l0,0c0,0,0,0,0.1,0c0,0,0,0,0.1,0l0,0l0,0c0,0,0,0,0.1,0c0,0,0,0,0.1,0
		l0,0c0,0,0,0,0.1,0l0,0l0,0l0,0l0,0l0,0l0,0l0,0c0,0,0,0,0-0.1l0,0c0,0,0,0,0-0.1l0,0l0,0c1.6-8.9,8.4-16.6,8.5-16.7
		c0.2-0.2,0.2-0.4,0.1-0.7C41,45.1,41.2,36.5,41.2,36.4z M34.9,53c-0.6,0-1.2-0.5-1.2-1.2c0-0.6,0.5-1.2,1.2-1.2
		c0.6,0,1.2,0.5,1.2,1.2C36,52.5,35.5,53,34.9,53z M29.8,37l4.5,0.1v12.5c-1,0.3-1.8,1.2-1.8,2.3s0.7,2,1.8,2.3v10.1
		C32.1,58,28,53,26.9,51.7C29.5,46,29.8,39.1,29.8,37z"/>
	<path class="st0" d="M29.2,32.3c-0.3,0-0.6,0.3-0.6,0.6s0.3,0.6,0.6,0.6h11.3c0.3,0,0.6-0.3,0.6-0.6s-0.3-0.6-0.6-0.6H29.2z"/>
	<path class="st0" d="M41.8,29.4c0-0.3-0.3-0.6-0.6-0.6H28.7c-0.3,0-0.6,0.3-0.6,0.6c0,0.3,0.3,0.6,0.6,0.6h12.5
		C41.6,30,41.8,29.8,41.8,29.4z"/>
</g>
</svg>
