<?xml version="1.0" encoding="utf-8"?>
<!-- Generator: Adobe Illustrator 25.0.0, SVG Export Plug-In . SVG Version: 6.00 Build 0)  -->
<svg version="1.1" id="Layer_1" xmlns="http://www.w3.org/2000/svg" xmlns:xlink="http://www.w3.org/1999/xlink" x="0px" y="0px"
	 viewBox="0 0 180.3 202.4" style="enable-background:new 0 0 180.3 202.4;" xml:space="preserve">
<style type="text/css">
	.st0{fill:#2C2E3C;}
	.st1{fill:none;}
</style>
<g>
	<g>
		<path class="st0" d="M4,189.6c0.5,0.6,1.6,0.8,3,0.8c1.5,0,2.5-0.3,3-0.8c0.5-0.6,0.8-1.6,0.8-3.1h3.1c0,4.7-2.3,7.1-6.9,7.1
			s-6.9-2.4-6.9-7.1v-17c0-1,0-1.8,0.1-2.6c0.1-0.8,0.3-1.6,0.6-2.6c0.3-0.9,0.7-1.7,1.2-2.3s1.2-1.1,2-1.6c0.9-0.4,1.9-0.6,3.1-0.6
			c1,0,1.9,0.1,2.6,0.4c0.8,0.3,1.4,0.6,1.9,1.1s0.9,1,1.2,1.6c0.3,0.6,0.6,1.3,0.7,2c0.2,0.8,0.3,1.5,0.3,2.2
			c0,0.7,0.1,1.5,0.1,2.3h-3.1c0-1.1,0-2-0.1-2.8c-0.1-0.8-0.3-1.4-0.5-1.9s-0.4-0.8-0.6-1.1c-0.2-0.3-0.5-0.5-0.8-0.6
			c-0.4-0.1-0.6-0.2-0.9-0.2c-0.2,0-0.5,0-0.9,0c-0.6,0-1.1,0.1-1.5,0.2s-0.8,0.4-1.2,0.8c-0.4,0.4-0.7,1.1-0.9,2
			c-0.2,0.9-0.3,2.1-0.3,3.6v17C3.1,188,3.4,189,4,189.6z"/>
		<path class="st0" d="M16.3,193.6v-33.8h3.1v30.7h8.8v3.1H16.3z"/>
		<path class="st0" d="M40.7,159.9c1,0,1.8,0.2,2.6,0.5c0.8,0.4,1.4,0.8,1.8,1.3c0.5,0.5,0.9,1.2,1.2,1.8c0.3,0.6,0.5,1.3,0.6,2
			c0.1,0.6,0.2,1.2,0.2,1.8v26.2H44v-16.4c-0.4,0-0.7,0-0.9,0c-2,0-3.9-0.3-5.6-0.8v17.2h-3.1v-18.6c-0.4-0.3-0.8-0.6-1.2-0.9
			c-0.4-0.3-0.7-0.6-1-0.9c-0.3-0.3-0.5-0.6-0.8-0.9c-0.2-0.3-0.4-0.6-0.6-0.8c-0.2-0.3-0.3-0.5-0.4-0.7s-0.2-0.4-0.3-0.6
			c-0.1-0.2-0.1-0.3-0.2-0.4c0-0.1,0-0.2,0-0.2l3-0.9c0.2,0.8,0.7,1.6,1.5,2.4v-3.6c0-0.4,0-0.8,0.1-1.2c0-0.5,0.2-1.2,0.6-2.2
			c0.3-1,0.8-1.8,1.5-2.4C37.6,160.4,39,159.9,40.7,159.9z M37.6,173c1.8,0.7,4,1.1,6.5,1v-6.6c0-0.3,0-0.6-0.1-0.9
			c-0.1-0.4-0.2-0.8-0.4-1.4c-0.2-0.6-0.5-1.1-1-1.5c-0.5-0.4-1.1-0.6-1.8-0.6c-0.8,0-1.4,0.3-1.9,0.8c-0.3,0.3-0.6,0.7-0.8,1.2
			c-0.2,0.5-0.3,1-0.4,1.4c0,0.4-0.1,0.7-0.1,1C37.6,167.4,37.6,173,37.6,173z"/>
		<path class="st0" d="M61.7,159.8h3.1v5.2c0,5.5-1.9,9.8-5.8,12.8v15.8h-3.1v-15.8c-3.8-3-5.8-7.2-5.8-12.8v-5.2h3.1v5.2
			c0,4.3,1.4,7.6,4.2,10c2.8-2.3,4.2-5.7,4.2-10v-5.2H61.7z"/>
		<path class="st0" d="M80.1,192.3c0,0.5,0,1,0,1.7s-0.2,1.5-0.5,2.7s-0.8,2.2-1.4,3c-0.6,0.8-1.4,1.5-2.4,2s-2,0.7-3.1,0.7
			c-0.2,0-0.4,0-0.6,0c-2.7-0.2-4.8-1.8-6.2-4.7l2.8-1.4c0.9,1.8,2.2,2.8,3.7,3c0.3,0,0.6,0,1,0c0.3-0.1,0.6-0.2,0.9-0.3
			s0.6-0.3,0.8-0.5c0.3-0.2,0.5-0.4,0.6-0.6c0.5-0.7,0.9-1.6,1-2.7c0.2-1.1,0.2-2,0.2-2.7v-0.1v-29.2h-9.1v-3.1H80v32.2H80.1z"/>
		<path class="st0" d="M84.8,191.6c-0.4-0.6-0.8-1.3-1-2.2c-0.2-0.9-0.4-1.8-0.5-2.6s-0.1-1.8-0.1-2.9v-17c0-4.7,2.1-7.1,6.3-7.1
			s6.3,2.4,6.3,7.1v17c0,1.2,0,2.1-0.1,2.9s-0.2,1.7-0.5,2.6c-0.2,0.9-0.6,1.6-1,2.2c-0.4,0.6-1.1,1-1.9,1.4s-1.8,0.6-2.9,0.6
			s-2.1-0.2-2.9-0.6C85.9,192.6,85.2,192.1,84.8,191.6z M86.4,166.9v17c0,1.3,0.1,2.4,0.2,3.2c0.1,0.9,0.2,1.5,0.4,2
			c0.2,0.4,0.4,0.8,0.7,1c0.3,0.2,0.6,0.3,0.8,0.4c0.2,0,0.6,0,1,0s0.8,0,1,0s0.5-0.2,0.8-0.4c0.3-0.2,0.6-0.5,0.7-1
			c0.1-0.4,0.3-1.1,0.4-2c0.1-0.9,0.2-1.9,0.2-3.2v-17c0-1.7-0.2-2.8-0.7-3.2s-1.3-0.7-2.4-0.7s-2,0.2-2.4,0.7
			C86.6,164.1,86.4,165.2,86.4,166.9z"/>
		<path class="st0" d="M100.4,191.9c-0.6-0.6-1.1-1.4-1.5-2.4c-0.3-1-0.5-1.7-0.6-2.2c0-0.5-0.1-0.9-0.1-1.2v-26.3h3.1v26.3
			c0,0.5,0.1,1.1,0.3,1.9c0.2,0.7,0.5,1.3,0.9,1.8c0.5,0.5,1.1,0.7,1.9,0.7c0.4,0,0.9-0.1,1.2-0.2c0.4-0.2,0.7-0.4,0.9-0.6
			s0.4-0.5,0.6-0.8c0.2-0.3,0.3-0.6,0.4-0.9c0.1-0.3,0.1-0.6,0.2-0.9c0-0.3,0.1-0.5,0.1-0.6s0-0.2,0-0.3v-26.4h3.1v26.3
			c0,0.7-0.1,1.5-0.3,2.3c-0.2,0.8-0.5,1.6-1,2.4c-0.4,0.8-1.1,1.5-2,2s-1.9,0.8-3.1,0.8C102.8,193.6,101.5,193,100.4,191.9z"/>
		<path class="st0" d="M124.3,183.6c0.4,2.3,0.9,4.2,1.4,5.5c0.5,1.4,1.2,2.5,2,3.4l-2.3,2.1c-1.1-1.2-1.9-2.5-2.5-4.1
			s-1.2-3.7-1.7-6.4c-0.4-1.9-1-3.3-1.9-4.1s-1.8-1.3-2.8-1.5v15h-3.2v-33.7h1.5c0.2,0,0.6,0,1.1,0c1.2,0,2.1,0,2.8,0
			s1.5,0.2,2.6,0.5c1,0.3,1.8,0.7,2.4,1.3c1,1,1.4,2.2,1.4,3.8v7.4c0,0.4,0,0.8-0.1,1.2c-0.1,0.4-0.2,0.9-0.5,1.4
			c-0.2,0.5-0.6,1-1.1,1.4c-0.5,0.4-1.1,0.8-1.8,1.1C122.9,179.3,123.8,181.2,124.3,183.6z M116.5,162.9v12.5c0.6,0,1.2,0,1.7,0
			c0.9,0,1.7-0.1,2.3-0.3c0.6-0.2,1-0.4,1.2-0.8c0.2-0.3,0.3-0.6,0.4-0.8c0.1-0.2,0.1-0.4,0.1-0.8v-7.4c0-0.7-0.2-1.3-0.6-1.6
			C120.8,163.2,119.1,162.8,116.5,162.9z"/>
		<path class="st0" d="M141.9,159.8h3.1v33.7h-3.1v-2.4c-1.3-0.6-2.6-1.6-4-3.1c-1.4-1.4-2.7-3.5-3.7-6c0-0.1-0.1-0.2-0.1-0.3
			c0-0.1-0.1-0.2-0.1-0.3v12.2h-3.1v-26.7v-5.5v-1.5h3.1v1.5v5.5c0,4.4,1,9,3.1,13.9c1.3,3,2.9,5.3,4.9,6.7L141.9,159.8L141.9,159.8
			z"/>
		<path class="st0" d="M158.8,159.9c1,0,1.8,0.2,2.6,0.5c0.8,0.4,1.4,0.8,1.8,1.3c0.5,0.5,0.9,1.2,1.2,1.8c0.3,0.7,0.5,1.3,0.6,2
			c0.1,0.7,0.2,1.2,0.2,1.8v26.2h-3.1v-16.4c-0.4,0-0.7,0-0.9,0c-2,0-3.9-0.3-5.6-0.8v17.2h-3.1v-18.6c-0.4-0.3-0.8-0.6-1.2-0.9
			s-0.7-0.6-1-0.9c-0.3-0.3-0.5-0.6-0.8-0.9c-0.2-0.3-0.4-0.6-0.6-0.8c-0.2-0.3-0.3-0.5-0.4-0.7c-0.1-0.2-0.2-0.4-0.3-0.6
			c-0.1-0.2-0.1-0.3-0.2-0.4c0-0.1,0-0.2,0-0.2l3-0.9c0.2,0.8,0.7,1.6,1.5,2.4v-3.6c0-0.4,0-0.8,0.1-1.2s0.2-1.2,0.6-2.2
			c0.3-1,0.8-1.8,1.5-2.4C155.8,160.4,157.1,159.9,158.8,159.9z M155.7,173c1.8,0.7,4,1.1,6.5,1v-6.6c0-0.3,0-0.6-0.1-0.9
			c-0.1-0.4-0.2-0.8-0.4-1.4c-0.2-0.6-0.5-1.1-1-1.5c-0.5-0.4-1.1-0.6-1.8-0.6c-0.8,0-1.4,0.3-1.9,0.8c-0.3,0.3-0.6,0.7-0.8,1.2
			s-0.3,1-0.4,1.4c-0.1,0.4-0.1,0.7-0.1,1V173z"/>
		<path class="st0" d="M168.3,193.6v-33.8h3.1v30.7h8.8v3.1H168.3z"/>
	</g>
	<g>
		<line class="st1" x1="0" y1="152.7" x2="180.3" y2="152.7"/>
		<path class="st0" d="M179.8,154.2H0.5c-0.3,0-0.5-0.2-0.5-0.5v-2.1c0-0.3,0.2-0.5,0.5-0.5h179.3c0.3,0,0.5,0.2,0.5,0.5v2.1
			C180.3,153.9,180,154.2,179.8,154.2z"/>
	</g>
	<g>
		<line class="st1" x1="85.9" y1="200.6" x2="180.3" y2="200.6"/>
		<path class="st0" d="M179.8,202.1H86.4c-0.3,0-0.5-0.2-0.5-0.5v-2.1c0-0.3,0.2-0.5,0.5-0.5h93.4c0.3,0,0.5,0.2,0.5,0.5v2.1
			C180.3,201.9,180,202.1,179.8,202.1z"/>
	</g>
	<g>
		<line class="st1" x1="0" y1="200.6" x2="61.3" y2="200.6"/>
		<path class="st0" d="M60.8,202.1H0.5c-0.3,0-0.5-0.2-0.5-0.5v-2.1c0-0.3,0.2-0.5,0.5-0.5h60.3c0.3,0,0.5,0.2,0.5,0.5v2.1
			C61.3,201.9,61.1,202.1,60.8,202.1z"/>
	</g>
	<rect x="176.9" y="178.5" class="st0" width="3.4" height="3.4"/>
	<rect x="176.9" y="170.2" class="st0" width="3.4" height="3.4"/>
	<rect x="176.9" y="161.9" class="st0" width="3.4" height="3.4"/>
</g>
<g>
	<path class="st0" d="M89.9,0C50.5,0,18.6,31.9,18.6,71.4c0,22.6,10.7,43,27.1,55.9c1-0.8,2.1-1.9,3.3-2.7c14-10.9,23-27.8,23-46.9
		c0-17.3-7.4-32.9-19.3-43.8c-3.5-3.3-1.4-9,3.5-9h68.7c4.7,0,7,6,3.5,9c-11.9,10.9-19.3,26.5-19.3,43.8c0,19.1,9,36,23,46.9
		c1,0.8,1.9,1.4,2.9,2.3c16.2-13.2,26.7-33.1,26.7-55.7C161.3,31.9,129.4,0,89.9,0z"/>
	<path class="st0" d="M103.3,74.9c0-0.4-0.2-0.6-0.4-0.8c-0.2-0.2-0.6-0.4-0.8-0.4l-11.7,0.2l-11.7-0.2c-0.4,0-0.6,0.2-0.8,0.4
		c-0.2,0.2-0.4,0.6-0.4,0.8c0,0.2,0.4,17.7-6,31.1c-0.2,0.4-0.2,1,0.2,1.4c0.2,0.2,14.2,16,17.5,34.3l0,0l0,0c0,0,0,0,0,0.2l0,0
		c0,0,0,0,0,0.2l0,0l0,0l0,0l0,0l0,0l0,0l0,0c0,0,0,0,0.2,0l0,0c0,0,0,0,0.2,0c0,0,0,0,0.2,0l0,0l0,0c0,0,0,0,0.2,0c0,0,0,0,0.2,0
		l0,0c0,0,0,0,0.2,0l0,0l0,0l0,0l0,0l0,0l0,0l0,0c0,0,0,0,0-0.2l0,0c0,0,0,0,0-0.2l0,0l0,0c3.3-18.3,17.3-34.1,17.5-34.3
		c0.4-0.4,0.4-0.8,0.2-1.4C102.9,92.7,103.3,75.1,103.3,74.9z M90.4,109c-1.2,0-2.5-1-2.5-2.5c0-1.2,1-2.5,2.5-2.5
		c1.2,0,2.5,1,2.5,2.5C92.6,108,91.6,109,90.4,109z M79.9,76.1l9.3,0.2V102c-2.1,0.6-3.7,2.5-3.7,4.7c0,2.3,1.4,4.1,3.7,4.7v20.8
		c-4.5-13-13-23.2-15.2-25.9C79.3,94.6,79.9,80.4,79.9,76.1z"/>
	<path class="st0" d="M78.6,66.4c-0.6,0-1.2,0.6-1.2,1.2c0,0.6,0.6,1.2,1.2,1.2h23.2c0.6,0,1.2-0.6,1.2-1.2c0-0.6-0.6-1.2-1.2-1.2
		H78.6z"/>
	<path class="st0" d="M104.5,60.5c0-0.6-0.6-1.2-1.2-1.2H77.6c-0.6,0-1.2,0.6-1.2,1.2c0,0.6,0.6,1.2,1.2,1.2h25.7
		C104.1,61.7,104.5,61.3,104.5,60.5z"/>
</g>
</svg>
