<?xml version="1.0" encoding="utf-8"?>
<!-- Generator: Adobe Illustrator 25.0.0, SVG Export Plug-In . SVG Version: 6.00 Build 0)  -->
<svg version="1.1" id="Layer_1" xmlns="http://www.w3.org/2000/svg" xmlns:xlink="http://www.w3.org/1999/xlink" x="0px" y="0px"
	 viewBox="0 0 143.1 142.1" style="enable-background:new 0 0 143.1 142.1;" xml:space="preserve">
<style type="text/css">
	.st0{fill:#E16237;}
</style>
<g>
	<path class="st0" d="M71.4,0C31.9,0,0,31.9,0,71.4c0,22.6,10.7,43,27.1,55.9c1-0.8,2.1-1.9,3.3-2.7c14-10.9,23-27.8,23-46.9
		c0-17.3-7.4-32.9-19.3-43.8c-3.5-3.3-1.4-9,3.5-9h68.7c4.7,0,7,6,3.5,9C97.9,44.8,90.5,60.5,90.5,77.7c0,19.1,9,36,23,46.9
		c1,0.8,1.9,1.4,2.9,2.3c16.2-13.2,26.7-33.1,26.7-55.7C142.7,31.9,110.8,0,71.4,0z"/>
	<path class="st0" d="M84.7,74.9c0-0.4-0.2-0.6-0.4-0.8c-0.2-0.2-0.6-0.4-0.8-0.4l-11.7,0.2L60,73.6c-0.4,0-0.6,0.2-0.8,0.4
		c-0.2,0.2-0.4,0.6-0.4,0.8c0,0.2,0.4,17.7-6,31.1c-0.2,0.4-0.2,1,0.2,1.4c0.2,0.2,14.2,16,17.5,34.3l0,0l0,0c0,0,0,0,0,0.2l0,0
		c0,0,0,0,0,0.2l0,0l0,0l0,0l0,0l0,0l0,0l0,0c0,0,0,0,0.2,0l0,0c0,0,0,0,0.2,0c0,0,0,0,0.2,0l0,0l0,0c0,0,0,0,0.2,0c0,0,0,0,0.2,0
		l0,0c0,0,0,0,0.2,0l0,0l0,0l0,0l0,0l0,0l0,0l0,0c0,0,0,0,0-0.2l0,0c0,0,0,0,0-0.2l0,0l0,0c3.3-18.3,17.3-34.1,17.5-34.3
		c0.4-0.4,0.4-0.8,0.2-1.4C84.3,92.7,84.7,75.1,84.7,74.9z M71.8,109c-1.2,0-2.5-1-2.5-2.5c0-1.2,1-2.5,2.5-2.5c1.2,0,2.5,1,2.5,2.5
		C74,108,73,109,71.8,109z M61.3,76.1l9.3,0.2V102c-2.1,0.6-3.7,2.5-3.7,4.7c0,2.3,1.4,4.1,3.7,4.7v20.8c-4.5-13-13-23.2-15.2-25.9
		C60.7,94.6,61.3,80.4,61.3,76.1z"/>
	<path class="st0" d="M60,66.4c-0.6,0-1.2,0.6-1.2,1.2c0,0.6,0.6,1.2,1.2,1.2h23.2c0.6,0,1.2-0.6,1.2-1.2c0-0.6-0.6-1.2-1.2-1.2H60z
		"/>
	<path class="st0" d="M86,60.5c0-0.6-0.6-1.2-1.2-1.2H59c-0.6,0-1.2,0.6-1.2,1.2c0,0.6,0.6,1.2,1.2,1.2h25.7
		C85.5,61.7,86,61.3,86,60.5z"/>
</g>
</svg>
